<svg version="1.1" id="Layer_1" xmlns="http://www.w3.org/2000/svg" xmlns:xlink="http://www.w3.org/1999/xlink" x="0px" y="0px"
	 width="100%" viewBox="0 0 380 167" enable-background="new 0 0 380 167" xml:space="preserve">
<path fill="#FEFEFF" opacity="1.000000" stroke="none" 
	d="
M287.000000,168.000000 
	C191.333359,168.000000 96.166710,168.000000 1.000051,168.000000 
	C1.000034,112.333366 1.000034,56.666740 1.000017,1.000081 
	C127.666595,1.000054 254.333191,1.000054 380.999817,1.000027 
	C380.999878,56.666584 380.999878,112.333168 380.999939,167.999878 
	C349.833344,168.000000 318.666656,168.000000 287.000000,168.000000 
M144.226379,97.299355 
	C144.679932,96.743553 145.133484,96.187752 146.086029,95.168503 
	C151.431732,88.473732 152.544281,81.264816 147.750504,73.965782 
	C145.604065,70.697609 142.679886,67.729996 139.538620,65.391815 
	C137.016510,63.514500 137.018906,61.894417 137.380493,59.143112 
	C138.064056,53.941895 138.092438,48.644108 138.203476,43.382450 
	C138.260681,40.672459 137.710495,37.948013 137.789795,35.240494 
	C137.915115,30.961113 134.026917,27.810068 129.725632,28.947588 
	C128.319504,29.319456 126.932892,30.006350 125.517990,30.062674 
	C118.807861,30.329794 112.091042,30.428785 104.716446,30.603281 
	C92.559578,13.315804 78.001472,12.627419 64.592461,31.564505 
	C60.847984,30.885666 57.139126,30.016588 53.380074,29.569618 
	C43.137630,28.351738 36.445438,32.212830 32.166130,41.460125 
	C31.732164,42.397896 30.807995,43.100971 30.155453,43.947014 
	C28.644850,45.905548 25.989958,47.887154 25.993639,49.855301 
	C25.997383,51.855179 28.283970,54.321720 30.196745,55.739456 
	C33.254452,58.005787 33.870132,62.534580 30.906393,64.939011 
	C29.098927,66.405373 27.229866,67.832634 25.622536,69.502724 
	C17.082661,78.376022 17.266575,89.153595 26.214985,97.445389 
	C26.410700,97.715118 26.668024,97.898331 27.116768,98.680016 
	C32.633583,101.501839 34.194733,105.712349 31.770151,111.472763 
	C31.275181,112.648735 31.146364,114.047897 31.135406,115.346596 
	C31.086767,121.111984 31.167063,126.870567 36.169815,131.848877 
	C37.261013,132.284119 38.352211,132.719376 39.557579,133.816788 
	C44.311680,138.243774 50.390678,137.935394 55.694778,136.636490 
	C61.863567,135.125824 66.496635,135.343079 70.075592,141.638306 
	C70.690636,142.084641 71.305679,142.530991 72.104645,143.652313 
	C83.048172,151.920929 93.099884,150.729141 101.758102,139.339951 
	C104.574036,135.635834 107.012993,134.457489 111.096275,136.229813 
	C111.844482,136.554565 112.696602,136.670639 113.513832,136.801086 
	C130.311203,139.482178 140.640305,130.195297 138.788391,114.068100 
	C138.637360,112.753006 138.574219,111.349495 138.056259,110.168663 
	C136.003113,105.488007 137.115372,101.992912 142.127930,99.276169 
	C142.681427,98.721954 143.234924,98.167740 144.226379,97.299355 
M173.034058,121.974556 
	C166.697723,120.123924 164.124969,115.451744 163.714935,109.296997 
	C163.322205,103.402031 165.079941,98.241562 170.447403,95.291618 
	C176.446686,91.994431 181.228027,95.041252 185.554810,99.563141 
	C187.759064,97.062225 189.788864,94.759247 191.733063,92.553383 
	C191.327530,91.897675 191.196548,91.573837 190.972168,91.339417 
	C184.652817,84.737389 174.025467,82.651047 165.670792,86.360771 
	C156.995163,90.213005 151.393738,100.044495 152.203278,109.998627 
	C153.018326,120.020638 159.781967,128.703491 168.669632,131.023758 
	C177.107346,133.226562 184.588837,131.271973 190.633163,125.069824 
	C195.959641,119.604271 196.415466,112.808907 195.088348,105.700043 
	C188.095596,105.700043 181.503113,105.700043 174.706268,105.700043 
	C174.706268,108.368507 174.706268,110.733124 174.706268,113.293365 
	C178.270218,113.498192 181.478271,113.682556 184.766159,113.871513 
	C183.208801,120.204117 180.756393,121.947243 173.034058,121.974556 
M314.822968,137.429047 
	C312.738922,136.524796 310.654907,135.620560 308.041382,134.486572 
	C306.152008,135.475845 303.710571,136.754181 301.253387,138.040741 
	C306.906525,147.793427 324.299316,148.952866 330.749634,140.346954 
	C331.807343,138.935776 332.867523,137.083618 332.897339,135.416855 
	C333.089569,124.671463 332.995667,113.920967 332.995667,102.991676 
	C330.031860,102.991676 327.241180,102.987724 324.450500,102.993309 
	C322.987579,102.996231 321.380310,103.420860 320.086212,102.959488 
	C313.712189,100.686958 307.746246,101.984093 303.788818,106.771980 
	C299.629425,111.804199 299.071777,119.330650 302.438385,124.998047 
	C305.607544,130.333069 311.500916,132.901596 317.866547,131.625549 
	C319.693054,131.259399 321.469971,130.645828 323.510376,130.078796 
	C323.382172,135.934723 320.330841,137.660080 314.822968,137.429047 
M167.753250,71.045525 
	C164.281845,69.668739 160.810455,68.291954 157.002441,66.781670 
	C155.514160,69.355705 153.977295,72.013741 152.269028,74.968239 
	C159.565842,79.968506 166.887833,82.122871 175.213135,80.108238 
	C181.250854,78.647171 185.313507,75.356758 186.319061,68.897156 
	C187.203110,63.218071 185.069534,58.859646 179.139389,55.403496 
	C176.138931,53.654797 172.690002,52.626934 169.838486,50.691689 
	C168.391129,49.709415 167.818771,47.437881 166.850845,45.749195 
	C168.651093,44.853161 170.500183,43.138847 172.240738,43.242741 
	C175.249374,43.422325 178.190659,44.730347 181.357925,45.620548 
	C182.607651,43.106911 183.838470,40.631298 185.162964,37.967293 
	C179.215912,33.867554 172.938583,32.653362 166.450150,34.410667 
	C160.985367,35.890736 157.220825,39.694160 156.359161,45.591370 
	C155.533371,51.242950 158.429382,55.167347 162.923126,58.023685 
	C165.292557,59.529755 168.157425,60.324070 170.350327,62.019524 
	C172.225952,63.469673 173.462280,65.746658 174.981369,67.657928 
	C172.848511,68.799789 170.715652,69.941643 167.753250,71.045525 
M202.064621,42.533524 
	C202.064621,39.275028 202.064621,36.016533 202.064621,32.729176 
	C198.454147,32.729176 195.542068,32.729176 192.517349,32.729176 
	C192.517349,48.604061 192.517349,64.150070 192.517349,79.779083 
	C195.773926,79.779083 198.703888,79.779083 202.052719,79.779083 
	C202.052719,76.328293 202.052719,73.104004 202.052719,68.648575 
	C208.962234,75.465408 214.281265,83.801704 225.533798,78.931839 
	C220.775269,74.520485 216.062561,70.151619 210.041183,64.569565 
	C215.186798,60.368488 219.736099,56.654259 224.431396,52.820847 
	C214.021622,48.689499 208.198120,54.320702 202.064636,61.858826 
	C202.064636,54.707291 202.064636,49.115421 202.064621,42.533524 
M264.339478,122.815918 
	C269.513275,132.468964 276.305634,134.323700 286.101440,128.822250 
	C288.824432,132.985886 292.668121,130.345062 296.183105,130.857452 
	C296.183105,121.412201 296.183105,112.324844 296.183105,102.753784 
	C293.987701,102.753784 292.017151,102.647820 290.063354,102.783356 
	C288.079224,102.920998 285.797760,104.075340 284.193207,103.428421 
	C278.451263,101.113373 273.088776,101.000664 268.361969,105.220848 
	C263.264404,109.772049 262.246582,115.626404 264.339478,122.815918 
M215.341919,131.152710 
	C216.958115,130.361969 218.574310,129.571228 220.087540,128.830872 
	C222.843750,132.951385 226.671310,130.365433 230.178894,130.846588 
	C230.178894,121.403801 230.178894,112.318428 230.178894,102.782768 
	C227.481613,102.782768 225.017120,102.717262 222.558197,102.805908 
	C220.931946,102.864532 219.121414,103.707542 217.724182,103.230492 
	C210.605453,100.800018 205.025757,101.788742 200.926193,106.606033 
	C196.838242,111.409653 196.086029,118.688812 199.092072,124.354691 
	C202.180664,130.176163 207.281570,132.489929 215.341919,131.152710 
M361.635132,130.380203 
	C363.934906,128.678757 366.234650,126.977318 368.983917,124.943306 
	C364.841888,122.473572 362.230682,120.384117 357.954224,123.201813 
	C353.688965,126.012131 349.233765,123.059486 349.369965,117.988800 
	C355.794037,117.988800 362.233673,117.988800 368.632599,117.988800 
	C369.214600,110.836281 367.017700,106.202370 361.578674,103.659340 
	C355.381226,100.761681 349.298126,101.023293 343.801636,105.454109 
	C338.862732,109.435440 337.127899,115.225471 338.921722,121.078918 
	C341.600952,129.821487 349.868591,133.447525 361.635132,130.380203 
M244.192871,44.520233 
	C244.192871,56.247356 244.192871,67.974480 244.192871,79.787064 
	C247.761429,79.787064 250.681961,79.787064 253.830994,79.787064 
	C253.830994,64.033623 253.830994,48.509766 253.830994,32.771019 
	C250.607635,32.771019 247.570160,32.771019 244.192947,32.771019 
	C244.192947,36.601635 244.192947,40.066570 244.192871,44.520233 
M270.064636,38.633316 
	C270.064636,36.703068 270.064636,34.772820 270.064636,32.686768 
	C266.551361,32.686768 263.643921,32.686768 260.466431,32.686768 
	C260.466431,48.478924 260.466431,63.986897 260.466431,79.697304 
	C263.715637,79.697304 266.745392,79.697304 270.064667,79.697304 
	C270.064667,66.121002 270.064667,52.862560 270.064636,38.633316 
M252.473282,102.499039 
	C250.794998,103.520340 249.116730,104.541641 247.813599,105.334648 
	C245.086533,100.540070 240.971115,103.501106 237.592316,102.843903 
	C237.592316,112.437325 237.592316,121.616951 237.592316,130.716339 
	C240.914017,130.716339 243.832184,130.716339 247.064575,130.716339 
	C247.064575,127.124168 247.063339,123.828865 247.064819,120.533562 
	C247.069061,111.155968 248.725037,109.716751 258.324005,111.181297 
	C259.485352,108.829956 260.705902,106.358788 262.447174,102.833336 
	C258.880157,102.586929 256.049194,102.391373 252.473282,102.499039 
M237.058365,77.290390 
	C237.058365,68.854721 237.058365,60.419048 237.058365,52.080818 
	C233.467148,52.080818 230.547791,52.080818 227.495026,52.080818 
	C227.495026,61.487083 227.495026,70.556549 227.495026,80.879974 
	C231.020721,79.906578 234.031845,79.075249 237.058365,77.290390 
M226.889542,38.210747 
	C227.819260,40.478569 228.236221,43.298985 229.866562,44.811710 
	C230.881790,45.753704 234.250198,45.406548 235.613892,44.379005 
	C237.006729,43.329494 238.079239,40.576385 237.745041,38.872513 
	C237.409988,37.164455 235.158859,34.607086 233.757996,34.613781 
	C231.529007,34.624435 229.308716,36.453892 226.889542,38.210747 
z"/>
<path fill="#6D2EED" opacity="1.000000" stroke="none" 
	d="
M70.003494,141.011246 
	C66.496635,135.343079 61.863567,135.125824 55.694778,136.636490 
	C50.390678,137.935394 44.311680,138.243774 39.754517,133.492188 
	C47.695122,135.519669 55.375614,135.773743 62.870968,132.715179 
	C60.679558,126.464035 58.586426,120.393036 56.395119,114.357697 
	C56.090408,113.518478 55.451668,112.443352 54.713737,112.174736 
	C48.403004,109.877525 42.033703,107.741211 35.467819,105.483139 
	C33.205395,112.831108 32.052433,120.013809 35.465672,127.294060 
	C35.990223,128.412888 35.861103,129.838196 36.034298,131.121750 
	C31.167063,126.870567 31.086767,121.111984 31.135406,115.346596 
	C31.146364,114.047897 31.275181,112.648735 31.770151,111.472763 
	C34.194733,105.712349 32.633583,101.501839 27.432768,98.301773 
	C29.942404,98.853859 32.136040,99.784203 34.184505,100.652977 
	C36.901314,95.512962 39.674294,90.438347 42.241116,85.261505 
	C42.737633,84.260109 42.885601,82.633690 42.415104,81.680038 
	C39.801975,76.383507 36.948376,71.205612 34.178932,65.990593 
	C22.180334,71.788033 18.855082,81.988281 25.126198,93.326683 
	C25.715242,94.391693 25.725845,95.776619 26.005011,97.013016 
	C17.266575,89.153595 17.082661,78.376022 25.622536,69.502724 
	C27.229866,67.832634 29.098927,66.405373 30.906393,64.939011 
	C33.870132,62.534580 33.254452,58.005787 30.196745,55.739456 
	C28.283970,54.321720 25.997383,51.855179 25.993639,49.855301 
	C25.989958,47.887154 28.644850,45.905548 30.155453,43.947014 
	C30.807995,43.100971 31.732164,42.397896 32.166130,41.460125 
	C36.445438,32.212830 43.137630,28.351738 53.380074,29.569618 
	C57.139126,30.016588 60.847984,30.885666 64.592461,31.564505 
	C78.001472,12.627419 92.559578,13.315804 104.716446,30.603281 
	C112.091042,30.428785 118.807861,30.329794 125.517990,30.062674 
	C126.932892,30.006350 128.319504,29.319456 129.725632,28.947588 
	C134.026917,27.810068 137.915115,30.961113 137.789795,35.240494 
	C137.710495,37.948013 138.260681,40.672459 138.203476,43.382450 
	C138.092438,48.644108 138.064056,53.941895 137.380493,59.143112 
	C137.018906,61.894417 137.016510,63.514500 139.538620,65.391815 
	C142.679886,67.729996 145.604065,70.697609 147.750504,73.965782 
	C152.544281,81.264816 151.431732,88.473732 145.509369,95.057785 
	C144.708603,94.724640 144.484512,94.502228 144.448792,93.980042 
	C151.386246,82.654488 147.813156,71.462196 135.522461,65.921432 
	C134.791046,67.522202 134.261520,69.274902 133.255890,70.689041 
	C132.488510,71.768135 131.117889,72.418259 130.133728,72.762894 
	C131.122650,70.290337 132.222946,68.373970 132.761322,66.310959 
	C133.007202,65.368790 132.445221,63.457771 131.737930,63.145618 
	C126.415741,60.796753 120.966034,58.736828 115.556198,56.586578 
	C114.985435,57.087360 114.414680,57.588142 113.843925,58.088924 
	C116.003067,63.633121 118.197548,69.164154 120.274246,74.739067 
	C120.519028,75.396156 120.117180,76.294128 119.683334,76.941322 
	C118.810158,76.299202 118.268730,75.796196 117.450989,75.036469 
	C117.450989,80.820229 117.450989,86.095482 117.450989,92.072121 
	C119.189178,90.006371 120.427803,88.534317 121.954597,87.636436 
	C121.574127,89.525696 121.195343,91.144958 120.188133,92.104767 
	C115.027603,97.022476 116.336678,103.581429 114.584503,110.558929 
	C121.607956,107.771362 127.529289,105.421219 134.162201,102.788658 
	C131.504471,97.473198 129.320801,92.881424 126.916893,88.408020 
	C125.948502,86.605934 124.497612,85.063148 123.295082,83.093872 
	C122.195351,80.855713 121.066841,78.926033 120.187881,76.602173 
	C121.463837,77.124817 122.371704,78.266541 123.553131,78.889275 
	C124.547928,79.413620 125.860771,79.334587 127.431686,79.809746 
	C127.784584,81.814018 127.147903,83.806671 127.797447,85.199509 
	C130.280182,90.523293 133.176804,95.654053 135.999802,101.010422 
	C137.503967,100.045013 138.884506,99.158943 140.602448,98.605682 
	C141.169876,99.155029 141.399918,99.371582 141.629959,99.588127 
	C137.115372,101.992912 136.003113,105.488007 138.056259,110.168663 
	C138.574219,111.349495 138.637360,112.753006 138.788391,114.068100 
	C140.640305,130.195297 130.311203,139.482178 113.513832,136.801086 
	C112.696602,136.670639 111.844482,136.554565 111.096275,136.229813 
	C107.012993,134.457489 104.574036,135.635834 101.758102,139.339951 
	C93.099884,150.729141 83.048172,151.920929 72.408463,143.267578 
	C74.213737,143.456238 75.796715,143.877304 77.202408,144.629623 
	C83.033386,147.750305 88.687492,147.483322 94.075844,143.741837 
	C97.584358,141.305649 100.911957,138.608902 104.320602,136.028885 
	C97.186012,131.419357 91.824966,128.523422 86.398788,125.755142 
	C85.669014,125.382835 84.439476,125.318680 83.732216,125.680458 
	C78.314514,128.451660 72.968857,131.363724 67.937531,134.052094 
	C68.659706,136.484711 69.331596,138.747986 70.003494,141.011246 
M109.875748,63.012043 
	C110.931305,63.482586 111.986855,63.953129 113.222061,64.503761 
	C112.940002,55.399380 111.077721,53.898319 103.066536,55.528568 
	C103.684692,56.629444 104.351624,57.817165 104.488075,59.141266 
	C104.319489,59.211342 104.150894,59.281422 103.340103,59.041847 
	C99.477493,54.150051 94.219215,52.757866 88.306725,53.140892 
	C82.870567,53.493057 76.007523,52.002670 72.290390,54.741047 
	C62.934994,61.633072 52.326572,68.807350 54.839443,83.456070 
	C55.534000,87.504967 53.887173,92.999199 56.028709,95.564865 
	C63.083874,104.017311 68.857918,114.150139 83.009193,113.732857 
	C93.419083,113.425903 101.276978,111.000313 108.200363,103.096527 
	C112.733521,97.921440 115.339851,93.037697 115.243080,85.978432 
	C115.125404,77.395050 115.245247,69.147797 108.504822,62.952709 
	C108.673599,62.907959 108.842377,62.863205 109.875748,63.012043 
M49.980221,77.705338 
	C46.703629,81.187286 45.518742,84.658485 49.633400,88.473373 
	C50.213814,89.011513 49.887375,90.527748 49.274223,91.380386 
	C47.873863,89.595596 46.473507,87.810806 44.491131,85.284218 
	C41.507305,91.377739 38.862431,96.779060 35.873337,102.883339 
	C42.615974,105.504585 48.524281,107.801476 54.432587,110.098366 
	C54.956825,109.701462 55.481068,109.304558 56.005310,108.907646 
	C53.991169,103.121170 51.977032,97.334694 50.551453,90.939346 
	C51.154259,91.081207 51.757061,91.223061 51.975952,91.274574 
	C51.975952,87.090843 52.050919,82.894028 51.887722,78.706497 
	C51.865574,78.138176 50.650387,77.616364 49.157272,76.636314 
	C52.941418,70.750427 54.998917,64.376930 54.751038,56.399582 
	C49.181084,58.618267 43.968845,60.529495 38.941982,62.843441 
	C37.997078,63.278393 36.994469,65.659203 37.378868,66.564423 
	C39.412445,71.353302 41.880871,75.957512 44.040138,80.306671 
	C46.480610,78.962982 48.269726,77.977913 49.980221,77.705338 
M95.720482,35.825871 
	C98.076996,34.759819 100.433510,33.693764 102.823608,32.612518 
	C92.239410,15.680923 76.440758,15.824679 67.502975,32.405758 
	C69.144890,33.615540 70.748566,34.797142 72.352242,35.978748 
	C72.116249,36.325199 71.880264,36.671650 71.644272,37.018097 
	C69.713829,36.307346 67.783386,35.596592 65.174309,34.635975 
	C62.821995,40.902340 60.620106,46.767975 58.313007,52.913887 
	C68.697670,53.393215 76.091560,49.863235 82.133644,43.132095 
	C80.904350,41.967041 79.796654,40.917225 77.787163,39.012737 
	C81.320808,40.059948 83.583450,40.730492 86.418137,41.709957 
	C92.973358,48.873032 100.493340,53.904232 111.721214,52.741032 
	C109.332825,46.566860 107.060310,40.692242 105.250084,36.012657 
	C100.978516,36.012657 98.008446,36.012657 95.720482,35.825871 
M61.903961,37.310719 
	C63.301041,35.038979 63.538013,33.215775 60.110661,32.970470 
	C55.494671,32.640095 50.839882,31.869766 46.266052,32.194378 
	C41.165245,32.556389 37.153790,35.495937 35.208984,40.353851 
	C34.658131,41.729828 35.033371,44.115429 35.941952,45.308201 
	C38.047867,48.072823 38.987236,51.109680 36.478798,53.382645 
	C33.458565,56.119358 34.497761,58.418320 35.707645,61.431469 
	C37.074482,60.905693 38.279476,60.420677 39.499386,59.976643 
	C44.788525,58.051437 51.420792,57.466465 55.004684,53.854248 
	C58.732655,50.096802 59.517315,43.419128 61.903961,37.310719 
M131.645142,106.117752 
	C126.840263,107.932480 122.137901,110.130272 117.200966,111.451561 
	C112.493454,112.711456 112.225739,116.584579 112.705750,119.549980 
	C114.032410,127.746010 114.400696,127.681099 107.230576,131.607025 
	C107.051842,131.704895 107.101723,132.220291 106.850098,133.642273 
	C112.346901,134.030304 117.776772,135.024475 123.104042,134.630646 
	C129.361923,134.168015 134.582184,130.553131 135.571762,124.191025 
	C136.438217,118.620422 135.366882,112.734940 134.945511,107.003700 
	C134.912628,106.556534 133.256790,106.228683 131.645142,106.117752 
M112.309364,32.407600 
	C110.500130,32.912132 108.690903,33.416664 107.106735,33.858433 
	C109.344086,40.252983 111.328056,46.046352 113.423996,51.798923 
	C113.796059,52.820103 114.438042,54.203785 115.287888,54.516521 
	C121.615112,56.844883 128.026184,58.945393 134.582458,61.175724 
	C136.588226,54.157146 137.860916,47.263493 134.821060,40.293732 
	C128.187698,41.504250 126.327698,40.000782 124.898682,32.191433 
	C121.035370,32.191433 117.098984,32.191433 112.309364,32.407600 
M70.162033,114.927345 
	C66.470657,114.376762 62.779278,113.826180 57.948780,113.105698 
	C60.619270,119.964859 62.953999,125.961609 65.513435,132.535522 
	C71.905212,129.337814 77.301186,126.638275 83.273354,123.650482 
	C78.752007,120.477226 74.854828,117.742035 70.162033,114.927345 
M106.345200,113.977806 
	C98.200211,113.503380 93.160385,119.111832 86.797340,123.902496 
	C92.916374,126.784241 98.549416,129.437119 104.182465,132.089981 
	C104.736473,130.262756 104.650024,129.615372 104.338661,129.105316 
	C100.872070,123.426620 101.991455,120.561356 108.052368,118.228722 
	C109.559334,117.648743 110.478775,115.542168 111.668274,114.137291 
	C111.288170,113.824570 110.908066,113.511848 110.527962,113.199120 
	C109.409790,113.423523 108.291618,113.647926 106.345200,113.977806 
M82.108406,115.664490 
	C80.384590,115.555664 78.660774,115.446831 76.566055,115.314590 
	C83.825218,123.346863 88.233803,123.256142 92.692886,115.684441 
	C89.556427,115.684441 86.243713,115.684441 82.108406,115.664490 
M65.396927,109.273399 
	C62.663582,106.163879 59.930229,103.054367 57.196880,99.944847 
	C56.775883,100.303505 56.354881,100.662155 55.933884,101.020813 
	C56.350231,103.445236 56.649582,105.897339 57.215004,108.286484 
	C57.810108,110.801071 64.652939,113.036911 66.629967,111.400558 
	C66.753525,111.298286 66.171043,110.342979 65.396927,109.273399 
M106.292160,107.789879 
	C105.016586,109.006073 103.741013,110.222260 102.172844,111.717430 
	C113.602043,111.537537 113.024239,111.096031 113.476555,100.300453 
	C111.091431,102.804718 108.947670,105.055565 106.292160,107.789879 
M86.066956,45.199234 
	C83.036293,46.672993 80.005630,48.146751 76.974960,49.620510 
	C77.159256,50.021198 77.343544,50.421883 77.527832,50.822571 
	C82.518517,50.822571 87.509201,50.822571 93.702072,50.822571 
	C90.792313,48.658802 88.741585,47.133827 86.066956,45.199234 
M57.153122,58.709030 
	C56.816277,60.983555 56.479427,63.258080 56.327061,64.286919 
	C59.339981,61.487263 62.788403,58.282925 66.236824,55.078590 
	C66.133347,54.757881 66.029869,54.437172 65.926399,54.116459 
	C63.054790,55.381516 60.183186,56.646572 57.153122,58.709030 
M113.021629,65.497208 
	C113.212402,65.566490 113.403183,65.635773 113.593948,65.705055 
	C113.530640,65.497749 113.467331,65.290443 113.021629,65.497208 
z"/>
<path fill="#631FEC" opacity="1.000000" stroke="none" 
	d="
M173.442566,122.017929 
	C180.756393,121.947243 183.208801,120.204117 184.766159,113.871513 
	C181.478271,113.682556 178.270218,113.498192 174.706268,113.293365 
	C174.706268,110.733124 174.706268,108.368507 174.706268,105.700043 
	C181.503113,105.700043 188.095596,105.700043 195.088348,105.700043 
	C196.415466,112.808907 195.959641,119.604271 190.633163,125.069824 
	C184.588837,131.271973 177.107346,133.226562 168.669632,131.023758 
	C159.781967,128.703491 153.018326,120.020638 152.203278,109.998627 
	C151.393738,100.044495 156.995163,90.213005 165.670792,86.360771 
	C174.025467,82.651047 184.652817,84.737389 190.972168,91.339417 
	C191.196548,91.573837 191.327530,91.897675 191.733063,92.553383 
	C189.788864,94.759247 187.759064,97.062225 185.554810,99.563141 
	C181.228027,95.041252 176.446686,91.994431 170.447403,95.291618 
	C165.079941,98.241562 163.322205,103.402031 163.714935,109.296997 
	C164.124969,115.451744 166.697723,120.123924 173.442566,122.017929 
z"/>
<path fill="#601CEC" opacity="1.000000" stroke="none" 
	d="
M315.243073,137.484192 
	C320.330841,137.660080 323.382172,135.934723 323.510376,130.078796 
	C321.469971,130.645828 319.693054,131.259399 317.866547,131.625549 
	C311.500916,132.901596 305.607544,130.333069 302.438385,124.998047 
	C299.071777,119.330650 299.629425,111.804199 303.788818,106.771980 
	C307.746246,101.984093 313.712189,100.686958 320.086212,102.959488 
	C321.380310,103.420860 322.987579,102.996231 324.450500,102.993309 
	C327.241180,102.987724 330.031860,102.991676 332.995667,102.991676 
	C332.995667,113.920967 333.089569,124.671463 332.897339,135.416855 
	C332.867523,137.083618 331.807343,138.935776 330.749634,140.346954 
	C324.299316,148.952866 306.906525,147.793427 301.253387,138.040741 
	C303.710571,136.754181 306.152008,135.475845 308.041382,134.486572 
	C310.654907,135.620560 312.738922,136.524796 315.243073,137.484192 
M313.461609,122.320709 
	C316.363098,122.001770 319.796875,122.495262 321.973206,121.069458 
	C323.353241,120.165344 323.670044,116.167397 323.028198,113.977699 
	C321.946960,110.288803 317.243622,109.150284 313.895142,111.103554 
	C310.253906,113.227615 309.831879,117.292603 313.461609,122.320709 
z"/>
<path fill="#611DEC" opacity="1.000000" stroke="none" 
	d="
M168.168030,71.064514 
	C170.715652,69.941643 172.848511,68.799789 174.981369,67.657928 
	C173.462280,65.746658 172.225952,63.469673 170.350327,62.019524 
	C168.157425,60.324070 165.292557,59.529755 162.923126,58.023685 
	C158.429382,55.167347 155.533371,51.242950 156.359161,45.591370 
	C157.220825,39.694160 160.985367,35.890736 166.450150,34.410667 
	C172.938583,32.653362 179.215912,33.867554 185.162964,37.967293 
	C183.838470,40.631298 182.607651,43.106911 181.357925,45.620548 
	C178.190659,44.730347 175.249374,43.422325 172.240738,43.242741 
	C170.500183,43.138847 168.651093,44.853161 166.850845,45.749195 
	C167.818771,47.437881 168.391129,49.709415 169.838486,50.691689 
	C172.690002,52.626934 176.138931,53.654797 179.139389,55.403496 
	C185.069534,58.859646 187.203110,63.218071 186.319061,68.897156 
	C185.313507,75.356758 181.250854,78.647171 175.213135,80.108238 
	C166.887833,82.122871 159.565842,79.968506 152.269028,74.968239 
	C153.977295,72.013741 155.514160,69.355705 157.002441,66.781670 
	C160.810455,68.291954 164.281845,69.668739 168.168030,71.064514 
z"/>
<path fill="#631FEC" opacity="1.000000" stroke="none" 
	d="
M202.064636,43.028538 
	C202.064636,49.115421 202.064636,54.707291 202.064636,61.858826 
	C208.198120,54.320702 214.021622,48.689499 224.431396,52.820847 
	C219.736099,56.654259 215.186798,60.368488 210.041183,64.569565 
	C216.062561,70.151619 220.775269,74.520485 225.533798,78.931839 
	C214.281265,83.801704 208.962234,75.465408 202.052719,68.648575 
	C202.052719,73.104004 202.052719,76.328293 202.052719,79.779083 
	C198.703888,79.779083 195.773926,79.779083 192.517349,79.779083 
	C192.517349,64.150070 192.517349,48.604061 192.517349,32.729176 
	C195.542068,32.729176 198.454147,32.729176 202.064621,32.729176 
	C202.064621,36.016533 202.064621,39.275028 202.064636,43.028538 
z"/>
<path fill="#601CEC" opacity="1.000000" stroke="none" 
	d="
M264.211823,122.445114 
	C262.246582,115.626404 263.264404,109.772049 268.361969,105.220848 
	C273.088776,101.000664 278.451263,101.113373 284.193207,103.428421 
	C285.797760,104.075340 288.079224,102.920998 290.063354,102.783356 
	C292.017151,102.647820 293.987701,102.753784 296.183105,102.753784 
	C296.183105,112.324844 296.183105,121.412201 296.183105,130.857452 
	C292.668121,130.345062 288.824432,132.985886 286.101440,128.822250 
	C276.305634,134.323700 269.513275,132.468964 264.211823,122.445114 
M285.158051,112.402199 
	C282.173218,109.540405 278.509979,108.956253 275.980377,112.073906 
	C274.457855,113.950348 273.742096,118.103767 274.823364,120.007011 
	C275.871674,121.852158 279.761627,123.084885 282.261505,122.877136 
	C286.391663,122.533897 287.635895,118.110428 285.158051,112.402199 
z"/>
<path fill="#601CEC" opacity="1.000000" stroke="none" 
	d="
M214.965912,131.268585 
	C207.281570,132.489929 202.180664,130.176163 199.092072,124.354691 
	C196.086029,118.688812 196.838242,111.409653 200.926193,106.606033 
	C205.025757,101.788742 210.605453,100.800018 217.724182,103.230492 
	C219.121414,103.707542 220.931946,102.864532 222.558197,102.805908 
	C225.017120,102.717262 227.481613,102.782768 230.178894,102.782768 
	C230.178894,112.318428 230.178894,121.403801 230.178894,130.846588 
	C226.671310,130.365433 222.843750,132.951385 220.087540,128.830872 
	C218.574310,129.571228 216.958115,130.361969 214.965912,131.268585 
M211.431396,110.854225 
	C208.201828,112.377716 207.057159,115.237312 208.056778,118.280525 
	C208.673660,120.158615 210.706985,122.589417 212.396362,122.845428 
	C214.621567,123.182625 217.865540,122.286263 219.301514,120.688774 
	C220.559097,119.289764 220.684631,115.913033 219.953644,113.903358 
	C218.745712,110.582458 215.681824,109.510040 211.431396,110.854225 
z"/>
<path fill="#611DEC" opacity="1.000000" stroke="none" 
	d="
M361.282043,130.555542 
	C349.868591,133.447525 341.600952,129.821487 338.921722,121.078918 
	C337.127899,115.225471 338.862732,109.435440 343.801636,105.454109 
	C349.298126,101.023293 355.381226,100.761681 361.578674,103.659340 
	C367.017700,106.202370 369.214600,110.836281 368.632599,117.988800 
	C362.233673,117.988800 355.794037,117.988800 349.369965,117.988800 
	C349.233765,123.059486 353.688965,126.012131 357.954224,123.201813 
	C362.230682,120.384117 364.841888,122.473572 368.983917,124.943306 
	C366.234650,126.977318 363.934906,128.678757 361.282043,130.555542 
M354.453308,112.910889 
	C355.978729,112.806030 357.504150,112.701172 359.029572,112.596313 
	C359.188568,112.008476 359.347534,111.420647 359.506531,110.832809 
	C357.521759,109.931961 355.526276,108.317993 353.555481,108.347565 
	C351.866699,108.372902 350.206146,110.279976 348.533142,111.354836 
	C348.772766,111.800179 349.012421,112.245529 349.252045,112.690872 
	C350.695038,112.764336 352.138000,112.837799 354.453308,112.910889 
z"/>
<path fill="#FCFBFF" opacity="1.000000" stroke="none" 
	d="
M36.102058,131.485321 
	C35.861103,129.838196 35.990223,128.412888 35.465672,127.294060 
	C32.052433,120.013809 33.205395,112.831108 35.467819,105.483139 
	C42.033703,107.741211 48.403004,109.877525 54.713737,112.174736 
	C55.451668,112.443352 56.090408,113.518478 56.395119,114.357697 
	C58.586426,120.393036 60.679558,126.464035 62.870968,132.715179 
	C55.375614,135.773743 47.695122,135.519669 39.697433,133.161118 
	C38.352211,132.719376 37.261013,132.284119 36.102058,131.485321 
z"/>
<path fill="#631FEC" opacity="1.000000" stroke="none" 
	d="
M244.192902,44.025871 
	C244.192947,40.066570 244.192947,36.601635 244.192947,32.771019 
	C247.570160,32.771019 250.607635,32.771019 253.830994,32.771019 
	C253.830994,48.509766 253.830994,64.033623 253.830994,79.787064 
	C250.681961,79.787064 247.761429,79.787064 244.192871,79.787064 
	C244.192871,67.974480 244.192871,56.247356 244.192902,44.025871 
z"/>
<path fill="#631FEC" opacity="1.000000" stroke="none" 
	d="
M270.064636,39.118721 
	C270.064667,52.862560 270.064667,66.121002 270.064667,79.697304 
	C266.745392,79.697304 263.715637,79.697304 260.466431,79.697304 
	C260.466431,63.986897 260.466431,48.478924 260.466431,32.686768 
	C263.643921,32.686768 266.551361,32.686768 270.064636,32.686768 
	C270.064636,34.772820 270.064636,36.703068 270.064636,39.118721 
z"/>
<path fill="#FCFAFF" opacity="1.000000" stroke="none" 
	d="
M70.039543,141.324768 
	C69.331596,138.747986 68.659706,136.484711 67.937531,134.052094 
	C72.968857,131.363724 78.314514,128.451660 83.732216,125.680458 
	C84.439476,125.318680 85.669014,125.382835 86.398788,125.755142 
	C91.824966,128.523422 97.186012,131.419357 104.320602,136.028885 
	C100.911957,138.608902 97.584358,141.305649 94.075844,143.741837 
	C88.687492,147.483322 83.033386,147.750305 77.202408,144.629623 
	C75.796715,143.877304 74.213737,143.456238 72.316505,142.930084 
	C71.305679,142.530991 70.690636,142.084641 70.039543,141.324768 
z"/>
<path fill="#FCFBFF" opacity="1.000000" stroke="none" 
	d="
M26.109997,97.229202 
	C25.725845,95.776619 25.715242,94.391693 25.126198,93.326683 
	C18.855082,81.988281 22.180334,71.788033 34.178932,65.990593 
	C36.948376,71.205612 39.801975,76.383507 42.415104,81.680038 
	C42.885601,82.633690 42.737633,84.260109 42.241116,85.261505 
	C39.674294,90.438347 36.901314,95.512962 34.184505,100.652977 
	C32.136040,99.784203 29.942404,98.853859 27.367863,97.959274 
	C26.668024,97.898331 26.410700,97.715118 26.109997,97.229202 
z"/>
<path fill="#631FEC" opacity="1.000000" stroke="none" 
	d="
M252.845764,102.347427 
	C256.049194,102.391373 258.880157,102.586929 262.447174,102.833336 
	C260.705902,106.358788 259.485352,108.829956 258.324005,111.181297 
	C248.725037,109.716751 247.069061,111.155968 247.064819,120.533562 
	C247.063339,123.828865 247.064575,127.124168 247.064575,130.716339 
	C243.832184,130.716339 240.914017,130.716339 237.592316,130.716339 
	C237.592316,121.616951 237.592316,112.437325 237.592316,102.843903 
	C240.971115,103.501106 245.086533,100.540070 247.813599,105.334648 
	C249.116730,104.541641 250.794998,103.520340 252.845764,102.347427 
z"/>
<path fill="#611EEC" opacity="1.000000" stroke="none" 
	d="
M237.050659,77.767151 
	C234.031845,79.075249 231.020721,79.906578 227.495026,80.879974 
	C227.495026,70.556549 227.495026,61.487083 227.495026,52.080818 
	C230.547791,52.080818 233.467148,52.080818 237.058365,52.080818 
	C237.058365,60.419048 237.058365,68.854721 237.050659,77.767151 
z"/>
<path fill="#6320EC" opacity="1.000000" stroke="none" 
	d="
M226.987152,37.862419 
	C229.308716,36.453892 231.529007,34.624435 233.757996,34.613781 
	C235.158859,34.607086 237.409988,37.164455 237.745041,38.872513 
	C238.079239,40.576385 237.006729,43.329494 235.613892,44.379005 
	C234.250198,45.406548 230.881790,45.753704 229.866562,44.811710 
	C228.236221,43.298985 227.819260,40.478569 226.987152,37.862419 
z"/>
<path fill="#6D2EED" opacity="1.000000" stroke="none" 
	d="
M143.788422,97.613525 
	C143.234924,98.167740 142.681427,98.721954 141.878937,99.432144 
	C141.399918,99.371582 141.169876,99.155029 140.782883,98.387131 
	C141.193741,97.341484 141.761551,96.847191 142.685333,96.678253 
	C143.290329,97.206909 143.539383,97.410217 143.788422,97.613525 
z"/>
<path fill="#6D2EED" opacity="1.000000" stroke="none" 
	d="
M145.259872,95.289505 
	C145.133484,96.187752 144.679932,96.743553 144.007401,97.456436 
	C143.539383,97.410217 143.290329,97.206909 142.854767,96.449402 
	C143.198959,95.356743 143.729675,94.818275 144.260406,94.279800 
	C144.484512,94.502228 144.708603,94.724640 145.259872,95.289505 
z"/>
<path fill="#FDFCFF" opacity="1.000000" stroke="none" 
	d="
M107.982689,62.995079 
	C115.245247,69.147797 115.125404,77.395050 115.243080,85.978432 
	C115.339851,93.037697 112.733521,97.921440 108.200363,103.096527 
	C101.276978,111.000313 93.419083,113.425903 83.009193,113.732857 
	C68.857918,114.150139 63.083874,104.017311 56.028709,95.564865 
	C53.887173,92.999199 55.534000,87.504967 54.839443,83.456070 
	C52.326572,68.807350 62.934994,61.633072 72.290390,54.741047 
	C76.007523,52.002670 82.870567,53.493057 88.306725,53.140892 
	C94.219215,52.757866 99.477493,54.150051 103.712509,59.514893 
	C105.384178,60.990314 106.683434,61.992695 107.982689,62.995079 
M96.561691,72.163025 
	C90.940071,65.870773 84.334007,64.399040 78.004303,68.028702 
	C72.167534,71.375702 69.455688,78.456619 71.603615,84.741570 
	C74.314484,92.673683 82.914536,96.528214 90.568825,93.241737 
	C98.539436,89.819435 101.160576,81.446411 96.561691,72.163025 
z"/>
<path fill="#FBF9FF" opacity="1.000000" stroke="none" 
	d="
M85.846092,41.401031 
	C83.583450,40.730492 81.320808,40.059948 77.787163,39.012737 
	C79.796654,40.917225 80.904350,41.967041 82.133644,43.132095 
	C76.091560,49.863235 68.697670,53.393215 58.313007,52.913887 
	C60.620106,46.767975 62.821995,40.902340 65.174309,34.635975 
	C67.783386,35.596592 69.713829,36.307346 71.644272,37.018097 
	C71.880264,36.671650 72.116249,36.325199 72.352242,35.978748 
	C70.748566,34.797142 69.144890,33.615540 67.502975,32.405758 
	C76.440758,15.824679 92.239410,15.680923 102.823608,32.612518 
	C100.433510,33.693764 98.076996,34.759819 95.023376,35.950394 
	C91.499550,37.850288 88.672821,39.625660 85.846092,41.401031 
M74.210915,38.313061 
	C75.047966,38.539425 75.885025,38.765789 76.722076,38.992153 
	C76.736748,38.364902 76.751419,37.737656 76.766083,37.110405 
	C75.710884,37.173203 74.655678,37.236000 73.649544,37.436508 
	C73.649544,37.436508 73.894577,37.745361 74.210915,38.313061 
z"/>
<path fill="#FDFCFF" opacity="1.000000" stroke="none" 
	d="
M61.746483,37.664558 
	C59.517315,43.419128 58.732655,50.096802 55.004684,53.854248 
	C51.420792,57.466465 44.788525,58.051437 39.499386,59.976643 
	C38.279476,60.420677 37.074482,60.905693 35.707645,61.431469 
	C34.497761,58.418320 33.458565,56.119358 36.478798,53.382645 
	C38.987236,51.109680 38.047867,48.072823 35.941952,45.308201 
	C35.033371,44.115429 34.658131,41.729828 35.208984,40.353851 
	C37.153790,35.495937 41.165245,32.556389 46.266052,32.194378 
	C50.839882,31.869766 55.494671,32.640095 60.110661,32.970470 
	C63.538013,33.215775 63.301041,35.038979 61.746483,37.664558 
z"/>
<path fill="#FCFAFF" opacity="1.000000" stroke="none" 
	d="
M132.000198,105.981567 
	C133.256790,106.228683 134.912628,106.556534 134.945511,107.003700 
	C135.366882,112.734940 136.438217,118.620422 135.571762,124.191025 
	C134.582184,130.553131 129.361923,134.168015 123.104042,134.630646 
	C117.776772,135.024475 112.346901,134.030304 106.850098,133.642273 
	C107.101723,132.220291 107.051842,131.704895 107.230576,131.607025 
	C114.400696,127.681099 114.032410,127.746010 112.705750,119.549980 
	C112.225739,116.584579 112.493454,112.711456 117.200966,111.451561 
	C122.137901,110.130272 126.840263,107.932480 132.000198,105.981567 
z"/>
<path fill="#FCFBFF" opacity="1.000000" stroke="none" 
	d="
M112.735977,32.299515 
	C117.098984,32.191433 121.035370,32.191433 124.898682,32.191433 
	C126.327698,40.000782 128.187698,41.504250 134.821060,40.293732 
	C137.860916,47.263493 136.588226,54.157146 134.582458,61.175724 
	C128.026184,58.945393 121.615112,56.844883 115.287888,54.516521 
	C114.438042,54.203785 113.796059,52.820103 113.423996,51.798923 
	C111.328056,46.046352 109.344086,40.252983 107.106735,33.858433 
	C108.690903,33.416664 110.500130,32.912132 112.735977,32.299515 
z"/>
<path fill="#FCFBFF" opacity="1.000000" stroke="none" 
	d="
M144.448792,93.980034 
	C143.729675,94.818275 143.198959,95.356743 142.498810,96.124054 
	C141.761551,96.847191 141.193741,97.341484 140.445496,98.054329 
	C138.884506,99.158943 137.503967,100.045013 135.999802,101.010422 
	C133.176804,95.654053 130.280182,90.523293 127.797447,85.199509 
	C127.147903,83.806671 127.784584,81.814018 127.418915,79.819855 
	C127.007278,79.542885 126.984070,79.526794 127.431290,79.753242 
	C128.585052,77.801575 129.291580,75.623459 130.007080,73.402817 
	C130.016037,73.360283 130.015625,73.259209 130.015625,73.259209 
	C131.117889,72.418259 132.488510,71.768135 133.255890,70.689041 
	C134.261520,69.274902 134.791046,67.522202 135.522461,65.921432 
	C147.813156,71.462196 151.386246,82.654488 144.448792,93.980034 
z"/>
<path fill="#F9F7FE" opacity="1.000000" stroke="none" 
	d="
M86.132111,41.555496 
	C88.672821,39.625660 91.499550,37.850288 94.682327,36.043785 
	C98.008446,36.012657 100.978516,36.012657 105.250084,36.012657 
	C107.060310,40.692242 109.332825,46.566860 111.721214,52.741032 
	C100.493340,53.904232 92.973358,48.873032 86.132111,41.555496 
z"/>
<path fill="#FAF8FE" opacity="1.000000" stroke="none" 
	d="
M123.266296,83.402351 
	C124.497612,85.063148 125.948502,86.605934 126.916893,88.408020 
	C129.320801,92.881424 131.504471,97.473198 134.162201,102.788658 
	C127.529289,105.421219 121.607956,107.771362 114.584503,110.558929 
	C116.336678,103.581429 115.027603,97.022476 120.188133,92.104767 
	C121.195343,91.144958 121.574127,89.525696 121.964661,87.628922 
	C122.213142,85.832283 122.739716,84.617317 123.266296,83.402351 
z"/>
<path fill="#FAF8FE" opacity="1.000000" stroke="none" 
	d="
M126.984070,79.526794 
	C126.984070,79.526794 127.007278,79.542885 127.020050,79.532776 
	C125.860771,79.334587 124.547928,79.413620 123.553131,78.889275 
	C122.371704,78.266541 121.463837,77.124817 120.201889,76.627655 
	C119.966354,77.047310 120.015083,77.080437 120.015091,77.080437 
	C120.117180,76.294128 120.519028,75.396156 120.274246,74.739067 
	C118.197548,69.164154 116.003067,63.633121 113.843925,58.088924 
	C114.414680,57.588142 114.985435,57.087360 115.556198,56.586578 
	C120.966034,58.736828 126.415741,60.796753 131.737930,63.145618 
	C132.445221,63.457771 133.007202,65.368790 132.761322,66.310959 
	C132.222946,68.373970 131.122650,70.290337 130.133728,72.762894 
	C130.015625,73.259209 130.016037,73.360283 129.722214,73.660614 
	C128.613617,75.816231 127.798843,77.671509 126.984070,79.526794 
z"/>
<path fill="#FAF8FE" opacity="1.000000" stroke="none" 
	d="
M49.962894,91.548218 
	C51.977032,97.334694 53.991169,103.121170 56.005310,108.907646 
	C55.481068,109.304558 54.956825,109.701462 54.432587,110.098366 
	C48.524281,107.801476 42.615974,105.504585 35.873337,102.883339 
	C38.862431,96.779060 41.507305,91.377739 44.491131,85.284218 
	C46.473507,87.810806 47.873863,89.595596 49.637299,91.465866 
	C50.000378,91.551346 49.962894,91.548218 49.962894,91.548218 
z"/>
<path fill="#F9F7FE" opacity="1.000000" stroke="none" 
	d="
M50.058846,76.992851 
	C48.269726,77.977913 46.480610,78.962982 44.040138,80.306671 
	C41.880871,75.957512 39.412445,71.353302 37.378868,66.564423 
	C36.994469,65.659203 37.997078,63.278393 38.941982,62.843441 
	C43.968845,60.529495 49.181084,58.618267 54.751038,56.399582 
	C54.998917,64.376930 52.941418,70.750427 49.592880,76.836868 
	C50.028484,77.037415 50.058846,76.992851 50.058846,76.992851 
z"/>
<path fill="#FAF8FE" opacity="1.000000" stroke="none" 
	d="
M70.559845,114.967087 
	C74.854828,117.742035 78.752007,120.477226 83.273354,123.650482 
	C77.301186,126.638275 71.905212,129.337814 65.513435,132.535522 
	C62.953999,125.961609 60.619270,119.964859 57.948780,113.105698 
	C62.779278,113.826180 66.470657,114.376762 70.559845,114.967087 
z"/>
<path fill="#F8F6FE" opacity="1.000000" stroke="none" 
	d="
M106.759323,113.925064 
	C108.291618,113.647926 109.409790,113.423523 110.527962,113.199120 
	C110.908066,113.511848 111.288170,113.824570 111.668274,114.137291 
	C110.478775,115.542168 109.559334,117.648743 108.052368,118.228722 
	C101.991455,120.561356 100.872070,123.426620 104.338661,129.105316 
	C104.650024,129.615372 104.736473,130.262756 104.182465,132.089981 
	C98.549416,129.437119 92.916374,126.784241 86.797340,123.902496 
	C93.160385,119.111832 98.200211,113.503380 106.759323,113.925064 
z"/>
<path fill="#F0E9FD" opacity="1.000000" stroke="none" 
	d="
M123.295074,83.093872 
	C122.739716,84.617317 122.213142,85.832283 121.676498,87.054764 
	C120.427803,88.534317 119.189178,90.006371 117.450989,92.072121 
	C117.450989,86.095482 117.450989,80.820229 117.450989,75.036469 
	C118.268730,75.796196 118.810158,76.299202 119.683334,76.941322 
	C120.015083,77.080437 119.966354,77.047310 119.952347,77.021828 
	C121.066841,78.926033 122.195351,80.855713 123.295074,83.093872 
z"/>
<path fill="#EDE5FD" opacity="1.000000" stroke="none" 
	d="
M82.519699,115.674469 
	C86.243713,115.684441 89.556427,115.684441 92.692886,115.684441 
	C88.233803,123.256142 83.825218,123.346863 76.566055,115.314590 
	C78.660774,115.446831 80.384590,115.555664 82.519699,115.674469 
z"/>
<path fill="#EDE5FD" opacity="1.000000" stroke="none" 
	d="
M65.656982,109.528969 
	C66.171043,110.342979 66.753525,111.298286 66.629967,111.400558 
	C64.652939,113.036911 57.810108,110.801071 57.215004,108.286484 
	C56.649582,105.897339 56.350231,103.445236 55.933884,101.020813 
	C56.354881,100.662155 56.775883,100.303505 57.196880,99.944847 
	C59.930229,103.054367 62.663582,106.163879 65.656982,109.528969 
z"/>
<path fill="#EDE5FD" opacity="1.000000" stroke="none" 
	d="
M106.548035,107.548141 
	C108.947670,105.055565 111.091431,102.804718 113.476555,100.300453 
	C113.024239,111.096031 113.602043,111.537537 102.172844,111.717430 
	C103.741013,110.222260 105.016586,109.006073 106.548035,107.548141 
z"/>
<path fill="#F6F2FE" opacity="1.000000" stroke="none" 
	d="
M86.378906,45.404041 
	C88.741585,47.133827 90.792313,48.658802 93.702072,50.822571 
	C87.509201,50.822571 82.518517,50.822571 77.527832,50.822571 
	C77.343544,50.421883 77.159256,50.021198 76.974960,49.620510 
	C80.005630,48.146751 83.036293,46.672993 86.378906,45.404041 
z"/>
<path fill="#F6F2FE" opacity="1.000000" stroke="none" 
	d="
M50.257172,91.243782 
	C49.962894,91.548218 50.000378,91.551346 49.990532,91.571304 
	C49.887375,90.527748 50.213814,89.011513 49.633400,88.473373 
	C45.518742,84.658485 46.703629,81.187286 50.019531,77.349091 
	C50.058846,76.992851 50.028484,77.037415 50.008041,77.055214 
	C50.650387,77.616364 51.865574,78.138176 51.887722,78.706497 
	C52.050919,82.894028 51.975952,87.090843 51.975952,91.274574 
	C51.757061,91.223061 51.154259,91.081207 50.257172,91.243782 
z"/>
<path fill="#F5F1FE" opacity="1.000000" stroke="none" 
	d="
M57.232353,58.310326 
	C60.183186,56.646572 63.054790,55.381516 65.926399,54.116459 
	C66.029869,54.437172 66.133347,54.757881 66.236824,55.078590 
	C62.788403,58.282925 59.339981,61.487263 56.327061,64.286919 
	C56.479427,63.258080 56.816277,60.983555 57.232353,58.310326 
z"/>
<path fill="#FDFCFF" opacity="1.000000" stroke="none" 
	d="
M105.018547,59.004883 
	C104.351624,57.817165 103.684692,56.629444 103.066536,55.528568 
	C111.077721,53.898319 112.940002,55.399380 113.222061,64.503761 
	C111.986855,63.953129 110.931305,63.482586 109.432510,62.551144 
	C107.665703,61.061790 106.342125,60.033337 105.018547,59.004883 
z"/>
<path fill="#F5F1FE" opacity="1.000000" stroke="none" 
	d="
M104.753311,59.073074 
	C106.342125,60.033337 107.665703,61.061790 109.000221,62.454350 
	C108.842377,62.863205 108.673599,62.907959 108.243759,62.973892 
	C106.683434,61.992695 105.384178,60.990314 104.033615,59.669720 
	C104.150894,59.281422 104.319489,59.211342 104.753311,59.073074 
z"/>
<path fill="#F5F1FE" opacity="1.000000" stroke="none" 
	d="
M113.212830,65.290169 
	C113.467331,65.290443 113.530640,65.497749 113.593948,65.705055 
	C113.403183,65.635773 113.212402,65.566490 113.212830,65.290169 
z"/>
<path fill="#F8F6FE" opacity="1.000000" stroke="none" 
	d="
M313.121582,122.075089 
	C309.831879,117.292603 310.253906,113.227615 313.895142,111.103554 
	C317.243622,109.150284 321.946960,110.288803 323.028198,113.977699 
	C323.670044,116.167397 323.353241,120.165344 321.973206,121.069458 
	C319.796875,122.495262 316.363098,122.001770 313.121582,122.075089 
z"/>
<path fill="#F9F7FE" opacity="1.000000" stroke="none" 
	d="
M285.418884,112.690323 
	C287.635895,118.110428 286.391663,122.533897 282.261505,122.877136 
	C279.761627,123.084885 275.871674,121.852158 274.823364,120.007011 
	C273.742096,118.103767 274.457855,113.950348 275.980377,112.073906 
	C278.509979,108.956253 282.173218,109.540405 285.418884,112.690323 
z"/>
<path fill="#F9F7FE" opacity="1.000000" stroke="none" 
	d="
M211.785309,110.699799 
	C215.681824,109.510040 218.745712,110.582458 219.953644,113.903358 
	C220.684631,115.913033 220.559097,119.289764 219.301514,120.688774 
	C217.865540,122.286263 214.621567,123.182625 212.396362,122.845428 
	C210.706985,122.589417 208.673660,120.158615 208.056778,118.280525 
	C207.057159,115.237312 208.201828,112.377716 211.785309,110.699799 
z"/>
<path fill="#EDE5FD" opacity="1.000000" stroke="none" 
	d="
M354.017151,112.911079 
	C352.138000,112.837799 350.695038,112.764336 349.252045,112.690872 
	C349.012421,112.245529 348.772766,111.800179 348.533142,111.354836 
	C350.206146,110.279976 351.866699,108.372902 353.555481,108.347565 
	C355.526276,108.317993 357.521759,109.931961 359.506531,110.832809 
	C359.347534,111.420647 359.188568,112.008476 359.029572,112.596313 
	C357.504150,112.701172 355.978729,112.806030 354.017151,112.911079 
z"/>
<path fill="#5F1AEB" opacity="1.000000" stroke="none" 
	d="
M96.762939,72.487610 
	C101.160576,81.446411 98.539436,89.819435 90.568825,93.241737 
	C82.914536,96.528214 74.314484,92.673683 71.603615,84.741570 
	C69.455688,78.456619 72.167534,71.375702 78.004303,68.028702 
	C84.334007,64.399040 90.940071,65.870773 96.762939,72.487610 
z"/>
<path fill="#F9F7FE" opacity="1.000000" stroke="none" 
	d="
M73.600479,37.298798 
	C74.655678,37.236000 75.710884,37.173203 76.766083,37.110405 
	C76.751419,37.737656 76.736748,38.364902 76.722076,38.992153 
	C75.885025,38.765789 75.047966,38.539425 73.938148,37.945057 
	C73.665382,37.577053 73.600479,37.298798 73.600479,37.298798 
z"/>
<path fill="#6D2EED" opacity="1.000000" stroke="none" 
	d="
M73.625015,37.367653 
	C73.600479,37.298798 73.665382,37.577053 73.779984,37.661209 
	C73.894577,37.745361 73.649544,37.436508 73.625015,37.367653 
z"/>
<path fill="#6D2EED" opacity="1.000000" stroke="none" 
	d="
M127.431290,79.753242 
	C127.798843,77.671509 128.613617,75.816231 129.713257,73.703156 
	C129.291580,75.623459 128.585052,77.801575 127.431290,79.753242 
z"/>
</svg>